# xmcd CD database file
#
# Track frame offsets:
#	182
#	10692
#	25045
#	44440
#	60292
#	71062
#	82475
#	95947
#	107130
#	121715
#	132970
#	149885
#	163952
#	175907
#	187962
#	201507
#	215345
#	229190
#	243257
#	253657
#	264812
#	278912
#	292220
#	305627
#	323237
#
# Disc length: 4426 seconds
#
# Revision: 0
# Processed by: cddbd v1.5.2PL0 Copyright (c) Steve Scherf et al.
# Submitted via: CDex 1.50
#
DISCID=83114819
DTITLE=Ella Fitzgerald - Collection
DYEAR=1993
DGENRE=Blues
TTITLE0=I can't give you anything but love
TTITLE1=How high the noon
TTITLE2=Mack the knife
TTITLE3=A fine Romance
TTITLE4=Goody Goody
TTITLE5=It's onlya paper moon
TTITLE6=We can't go on this way
TTITLE7=That old black magic
TTITLE8=Stars fell on alabama
TTITLE9=A tisket - a tasket
TTITLE10=Can't we be friends
TTITLE11=I've got my love to keep me warm
TTITLE12=Sing song swing
TTITLE13=Baby it's cold outside
TTITLE14=You'll have to swing it (Mr. Paganinni)
TTITLE15=I can't  get  started
TTITLE16=Smooth sailing
TTITLE17=You'll never know
TTITLE18=Taking a chance on love
TTITLE19=Flying home
TTITLE20=Oh! Lady be good
TTITLE21=Sugar blues
TTITLE22=Cow cow boogie
TTITLE23=Oh Johnny
TTITLE24=Lover come back to me
EXTD=
EXTT0=
EXTT1=
EXTT2=
EXTT3=
EXTT4=
EXTT5=
EXTT6=
EXTT7=
EXTT8=
EXTT9=
EXTT10=
EXTT11=
EXTT12=
EXTT13=
EXTT14=
EXTT15=
EXTT16=
EXTT17=
EXTT18=
EXTT19=
EXTT20=
EXTT21=
EXTT22=
EXTT23=
EXTT24=
PLAYORDER=
